<!-- icon666.com - MILLIONS OF FREE VECTOR ICONS --><svg viewBox="0 0 24 24" xmlns="http://www.w3.org/2000/svg"><g id="verified"><g><path d="m21.1582031 9.9619141c-.5654297-.5654297-.9619141-.9873047-1.1533203-1.2011719-.0351563-.3457031-.0878906-1.0634766-.0878906-1.7958984 0-1.5888672-1.2929688-2.8818359-2.8818359-2.8818359-.7988281 0-1.3779297-.0185547-1.6650391-.0341797-.2675781-.2177734-.8125-.6875-1.3320313-1.2070313-1.0859375-1.0859375-2.9897461-1.0859375-4.0766602 0-.5649413.5654297-.9873046.961914-1.2016601 1.1533203-.3427734.0351563-1.059082.0878906-1.7954102.0878906-1.5883789 0-2.8808594 1.2919922-2.8808594 2.8808594 0 .7998047-.0180664 1.3779297-.034668 1.6640625-.2167969.2675781-.6865234.8125-1.2070313 1.3339844-.5424803.5429687-.8417967 1.2666015-.8417967 2.0380859s.2993164 1.4951172.8413086 2.0380859c.5664063.5664063.9624023.9882813 1.1533203 1.2021484.0356445.34375.0888672 1.0615234.0888672 1.7949219 0 1.5888672 1.2915039 2.8808594 2.8793945 2.8808594.7993164 0 1.3779297.0185547 1.6650391.0341797.2685547.21875.8154297.6894531 1.3339844 1.2080078.5429687.5429688 1.2666015.8417969 2.0380859.8417969s1.4951172-.2988281 2.0380859-.8417969c.5664063-.5664063.9892578-.9628906 1.203125-1.1533203.3427734-.0351563 1.0605469-.0888672 1.7958984-.0888672 1.5878906 0 2.8798828-1.2919922 2.8798828-2.8808594 0-.7998047.0185547-1.3779297.0341797-1.6650391.2177734-.2675781.6865234-.8115234 1.2070313-1.3320313.5429688-.5429686.8417969-1.2666014.8417969-2.0380858s-.2988281-1.4951172-.8417969-2.0380859z" fill="#4caf50" style="fill: rgb(21, 209, 27);"></path><g><path d="m10.5 15.5c-.2558594 0-.5117188-.0976563-.7070313-.2929688l-2-2c-.390625-.390625-.390625-1.0234375 0-1.4140625s1.0234375-.390625 1.4140625 0l1.2929688 1.2929688 4.2929688-4.2929688c.390625-.390625 1.0234375-.390625 1.4140625 0s.390625 1.0234375 0 1.4140625l-5 5c-.1953125.1953126-.4511719.2929688-.7070313.2929688z" fill="#e0e0e0"></path></g></g></g></svg>