<svg xmlns="http://www.w3.org/2000/svg" viewBox="0 0 32 32" id="gold">
  <path fill="#ffcc5c" d="M11 28.004H1l1.158-4.632a1.428 1.428 0 0 1 1.386-1.082h4.912c.656 0 1.227.446 1.386 1.082L11 28.004zm10 0H11l1.158-4.632a1.428 1.428 0 0 1 1.386-1.082h4.912c.656 0 1.227.446 1.386 1.082L21 28.004zm10 0H21l1.158-4.632a1.428 1.428 0 0 1 1.386-1.082h4.912c.656 0 1.227.446 1.386 1.082L31 28.004zm-15-5.715H6l1.158-4.632a1.428 1.428 0 0 1 1.386-1.082h4.912c.656 0 1.227.446 1.386 1.082L16 22.289zm10 0H16l1.158-4.632a1.428 1.428 0 0 1 1.386-1.082h4.912c.656 0 1.227.446 1.386 1.082L26 22.289z"></path>
  <path fill="#ffcc5c" d="M21 16.575H11l1.158-4.632a1.428 1.428 0 0 1 1.386-1.082h4.912c.656 0 1.227.446 1.386 1.082L21 16.575z"></path>
  <path fill="#f7b546" d="M9.842 23.372a1.428 1.428 0 0 0-1.386-1.082H7.43l.449 1.797a2 2 0 0 1-1.94 2.485h-4.58L1 28.004h10l-1.158-4.632zm10 0a1.428 1.428 0 0 0-1.386-1.082H17.43l.449 1.797a2 2 0 0 1-1.94 2.485h-4.58L11 28.004h10l-1.158-4.632zm10 0a1.428 1.428 0 0 0-1.386-1.082H27.43l.449 1.797a2 2 0 0 1-1.94 2.485h-4.58L21 28.004h10l-1.158-4.632zm-15-5.715a1.428 1.428 0 0 0-1.386-1.082H12.43l.449 1.797a2 2 0 0 1-1.94 2.485h-4.58L6 22.289h10l-1.158-4.632zm10 0a1.428 1.428 0 0 0-1.386-1.082H22.43l.449 1.797a2 2 0 0 1-1.94 2.485h-4.58L16 22.289h10l-1.158-4.632z"></path>
  <path fill="#f7b546" d="M19.842 11.943a1.428 1.428 0 0 0-1.386-1.082H17.43l.449 1.797a2 2 0 0 1-1.94 2.485h-4.58L11 16.575h10l-1.158-4.632z"></path>
  <path fill="#ffcc5c" d="m20.4 8.454 1.6-.4-1.6-.4-.4-1.6-.4 1.6-1.6.4 1.6.4.4 1.6zm3.9 1.9 1.2-.3-1.2-.3-.3-1.2-.3 1.2-1.2.3 1.2.3.3 1.2zm-.6-4.1.8-.2-.8-.2-.2-.8-.2.8-.8.2.8.2.2.8z"></path>
</svg>
