<svg xmlns="http://www.w3.org/2000/svg"  viewBox="0 0 48 48" width="48px" height="48px"><path fill="#ffe082" d="M40.121,44H15.879C13.737,44,12,42.263,12,40.121V15.879C12,13.737,13.737,12,15.879,12h24.242	C42.263,12,44,13.737,44,15.879v24.242C44,42.263,42.263,44,40.121,44z"/><path fill="none" stroke="#18193f" stroke-linecap="round" stroke-linejoin="round" stroke-miterlimit="10" stroke-width="3" d="M34,7.5h2.5c2.209,0,4,1.791,4,4v25c0,2.209-1.791,4-4,4H19"/><path fill="none" stroke="#18193f" stroke-linecap="round" stroke-linejoin="round" stroke-miterlimit="10" stroke-width="3" d="M13.553,40.5H11.5c-2.209,0-4-1.791-4-4v-25c0-2.209,1.791-4,4-4h16.266"/><path fill="#18193f" d="M19.952,26.5l1.7-2.04c0.53-0.636,0.444-1.582-0.192-2.112c-0.637-0.53-1.582-0.444-2.113,0.192	L18,24.157l-1.348-1.617c-0.53-0.637-1.475-0.723-2.113-0.192c-0.636,0.53-0.722,1.477-0.192,2.112l1.7,2.04l-1.7,2.04	c-0.53,0.636-0.444,1.582,0.192,2.112C14.82,30.886,15.161,31,15.499,31c0.43,0,0.856-0.184,1.153-0.54L18,28.843l1.348,1.617	c0.297,0.356,0.723,0.54,1.153,0.54c0.338,0,0.679-0.114,0.959-0.348c0.636-0.53,0.722-1.477,0.192-2.112L19.952,26.5z"/><path fill="#18193f" d="M32.5,31h-7c-0.829,0-1.5-0.671-1.5-1.5c0-3.779,2.592-5.5,5-5.5c1.103,0,2-0.897,2-2s-0.897-2-2-2	c-1.463,0-1.903,0.931-2.015,1.712c-0.117,0.821-0.878,1.391-1.697,1.273c-0.82-0.117-1.39-0.877-1.273-1.697	C24.387,18.683,26.344,17,29,17c2.757,0,5,2.243,5,5s-2.243,5-5,5c-0.336,0-1.218,0.093-1.691,1H32.5c0.829,0,1.5,0.671,1.5,1.5	S33.329,31,32.5,31z"/></svg>